<?xml version="1.0" encoding="UTF-8" standalone="no"?>
<!DOCTYPE svg PUBLIC "-//W3C//DTD SVG 1.1//EN" "http://www.w3.org/Graphics/SVG/1.1/DTD/svg11.dtd">
<svg width="100%" height="100%" viewBox="0 0 1025 84" version="1.1" xmlns="http://www.w3.org/2000/svg" xmlns:xlink="http://www.w3.org/1999/xlink" xml:space="preserve" xmlns:serif="http://www.serif.com/" style="fill-rule:evenodd;clip-rule:evenodd;stroke-linejoin:round;stroke-miterlimit:1.41421;">
    <g transform="matrix(0.785396,0,0,0.75,-24.1755,-7.5)">
        <path d="M0,101.496L0,0L1366,0L1366,101.89C1369.07,102.707 1371.19,104.465 1371.19,106.499C1371.19,109.312 1367.13,111.596 1362.13,111.596C1358.48,111.596 1355.33,110.385 1353.89,108.64L1352.22,108.64C1350.78,110.385 1347.63,111.596 1343.99,111.596C1340.34,111.596 1337.2,110.385 1335.76,108.64L1334.08,108.64C1332.64,110.385 1329.49,111.596 1325.85,111.596C1322.2,111.596 1319.06,110.385 1317.62,108.64L1315.94,108.64C1314.5,110.385 1311.35,111.596 1307.71,111.596C1304.06,111.596 1300.92,110.385 1299.48,108.64L1297.8,108.64C1296.36,110.385 1293.22,111.596 1289.57,111.596C1285.93,111.596 1282.78,110.385 1281.34,108.64L1279.66,108.64C1278.22,110.385 1275.08,111.596 1271.43,111.596C1267.79,111.596 1264.64,110.385 1263.2,108.64L1261.53,108.64C1260.09,110.385 1256.94,111.596 1253.29,111.596C1249.65,111.596 1246.5,110.385 1245.06,108.64L1243.39,108.64C1241.95,110.385 1238.8,111.596 1235.15,111.596C1231.51,111.596 1228.37,110.385 1226.92,108.64L1225.25,108.64C1223.81,110.385 1220.66,111.596 1217.02,111.596C1213.37,111.596 1210.23,110.385 1208.79,108.64L1207.11,108.64C1205.67,110.385 1202.52,111.596 1198.88,111.596C1195.23,111.596 1192.09,110.385 1190.65,108.64L1188.97,108.64C1187.53,110.385 1184.38,111.596 1180.74,111.596C1177.1,111.596 1173.95,110.385 1172.51,108.64L1170.83,108.64C1169.39,110.385 1166.25,111.596 1162.6,111.596C1158.96,111.596 1155.81,110.385 1154.37,108.64L1152.69,108.64C1151.25,110.385 1148.11,111.596 1144.46,111.596C1140.82,111.596 1137.67,110.385 1136.23,108.64L1134.56,108.64C1133.12,110.385 1129.97,111.596 1126.32,111.596C1122.68,111.596 1119.53,110.385 1118.09,108.64L1116.42,108.64C1114.98,110.385 1111.83,111.596 1108.19,111.596C1104.54,111.596 1101.39,110.385 1099.95,108.64L1098.28,108.64C1096.84,110.385 1093.69,111.596 1090.05,111.596C1086.4,111.596 1083.26,110.385 1081.82,108.64L1080.14,108.64C1078.7,110.385 1075.55,111.596 1071.91,111.596C1068.26,111.596 1065.12,110.385 1063.68,108.64L1062,108.64C1060.56,110.385 1057.41,111.596 1053.77,111.596C1050.13,111.596 1046.98,110.385 1045.54,108.64L1043.86,108.64C1042.42,110.385 1039.28,111.596 1035.63,111.596C1031.99,111.596 1028.84,110.385 1027.4,108.64L1025.72,108.64C1024.28,110.385 1021.14,111.596 1017.49,111.596C1013.85,111.596 1010.7,110.385 1009.26,108.64L1007.59,108.64C1006.14,110.385 1003,111.596 999.355,111.596C995.71,111.596 992.564,110.385 991.123,108.64L989.448,108.64C988.007,110.385 984.861,111.596 981.216,111.596C977.571,111.596 974.425,110.385 972.985,108.64L971.309,108.64C969.868,110.385 966.723,111.596 963.078,111.596C959.433,111.596 956.287,110.385 954.846,108.64L953.171,108.64C951.73,110.385 948.584,111.596 944.939,111.596C941.294,111.596 938.148,110.385 936.708,108.64L935.032,108.64C933.591,110.385 930.446,111.596 926.801,111.596C923.156,111.596 920.01,110.385 918.569,108.64L916.894,108.64C915.453,110.385 912.307,111.596 908.662,111.596C905.017,111.596 901.871,110.385 900.431,108.64L898.755,108.64C897.314,110.385 894.169,111.596 890.524,111.596C886.879,111.596 883.733,110.385 882.292,108.64L880.617,108.64C879.176,110.385 876.03,111.596 872.385,111.596C868.74,111.596 865.594,110.385 864.154,108.64L862.478,108.64C861.037,110.385 857.892,111.596 854.247,111.596C850.602,111.596 847.456,110.385 846.015,108.64L844.339,108.64C842.899,110.385 839.753,111.596 836.108,111.596C832.463,111.596 829.317,110.385 827.877,108.64L826.201,108.64C824.76,110.385 821.615,111.596 817.97,111.596C814.325,111.596 811.179,110.385 809.738,108.64L808.062,108.64C806.622,110.385 803.476,111.596 799.831,111.596C796.186,111.596 793.04,110.385 791.6,108.64L789.924,108.64C788.483,110.385 785.338,111.596 781.693,111.596C778.048,111.596 774.902,110.385 773.461,108.64L771.785,108.64C770.345,110.385 767.199,111.596 763.554,111.596C759.909,111.596 756.763,110.385 755.323,108.64L753.647,108.64C752.206,110.385 749.061,111.596 745.416,111.596C741.77,111.596 738.625,110.385 737.184,108.64L735.508,108.64C734.068,110.385 730.922,111.596 727.277,111.596C723.632,111.596 720.486,110.385 719.046,108.64L717.37,108.64C715.929,110.385 712.784,111.596 709.139,111.596C705.493,111.596 702.348,110.385 700.907,108.64L699.231,108.64C697.791,110.385 694.645,111.596 691,111.596C687.355,111.596 684.209,110.385 682.769,108.64L681.093,108.64C679.652,110.385 676.507,111.596 672.861,111.596C669.216,111.596 666.071,110.385 664.63,108.64L662.954,108.64C661.514,110.385 658.368,111.596 654.723,111.596C651.078,111.596 647.932,110.385 646.492,108.64L644.816,108.64C643.375,110.385 640.23,111.596 636.584,111.596C632.939,111.596 629.794,110.385 628.353,108.64L626.677,108.64C625.237,110.385 622.091,111.596 618.446,111.596C614.801,111.596 611.655,110.385 610.215,108.64L608.539,108.64C607.098,110.385 603.952,111.596 600.307,111.596C596.662,111.596 593.517,110.385 592.076,108.64L590.4,108.64C588.96,110.385 585.814,111.596 582.169,111.596C578.524,111.596 575.378,110.385 573.938,108.64L572.262,108.64C570.821,110.385 567.675,111.596 564.03,111.596C560.385,111.596 557.24,110.385 555.799,108.64L554.123,108.64C552.683,110.385 549.537,111.596 545.892,111.596C542.247,111.596 539.101,110.385 537.661,108.64L535.985,108.64C534.544,110.385 531.398,111.596 527.753,111.596C524.108,111.596 520.963,110.385 519.522,108.64L517.846,108.64C516.406,110.385 513.26,111.596 509.615,111.596C505.97,111.596 502.824,110.385 501.383,108.64L499.708,108.64C498.267,110.385 495.121,111.596 491.476,111.596C487.831,111.596 484.686,110.385 483.245,108.64L481.569,108.64C480.129,110.385 476.983,111.596 473.338,111.596C469.693,111.596 466.547,110.385 465.106,108.64L463.431,108.64C461.99,110.385 458.844,111.596 455.199,111.596C451.554,111.596 448.409,110.385 446.968,108.64L445.292,108.64C443.852,110.385 440.706,111.596 437.061,111.596C433.416,111.596 430.27,110.385 428.829,108.64L427.154,108.64C425.713,110.385 422.567,111.596 418.922,111.596C415.277,111.596 412.132,110.385 410.691,108.64L409.015,108.64C407.575,110.385 404.429,111.596 400.784,111.596C397.139,111.596 393.993,110.385 392.552,108.64L390.877,108.64C389.436,110.385 386.29,111.596 382.645,111.596C379,111.596 375.855,110.385 374.414,108.64L372.738,108.64C371.297,110.385 368.152,111.596 364.507,111.596C360.862,111.596 357.716,110.385 356.275,108.64L354.6,108.64C353.159,110.385 350.013,111.596 346.368,111.596C342.723,111.596 339.578,110.385 338.137,108.64L336.461,108.64C335.02,110.385 331.875,111.596 328.23,111.596C324.585,111.596 321.439,110.385 319.998,108.64L318.323,108.64C316.882,110.385 313.736,111.596 310.091,111.596C306.446,111.596 303.3,110.385 301.86,108.64L300.184,108.64C298.743,110.385 295.598,111.596 291.953,111.596C288.308,111.596 285.162,110.385 283.721,108.64L282.046,108.64C280.605,110.385 277.459,111.596 273.814,111.596C270.169,111.596 267.023,110.385 265.583,108.64L263.907,108.64C262.466,110.385 259.321,111.596 255.676,111.596C252.031,111.596 248.885,110.385 247.444,108.64L245.769,108.64C244.328,110.385 241.182,111.596 237.537,111.596C233.892,111.596 230.746,110.385 229.306,108.64L227.63,108.64C226.189,110.385 223.044,111.596 219.399,111.596C215.754,111.596 212.608,110.385 211.167,108.64L209.491,108.64C208.051,110.385 204.905,111.596 201.26,111.596C197.615,111.596 194.469,110.385 193.029,108.64L191.353,108.64C189.912,110.385 186.767,111.596 183.122,111.596C179.477,111.596 176.331,110.385 174.89,108.64L173.214,108.64C171.774,110.385 168.628,111.596 164.983,111.596C161.338,111.596 158.192,110.385 156.752,108.64L155.076,108.64C153.635,110.385 150.49,111.596 146.845,111.596C143.2,111.596 140.054,110.385 138.613,108.64L136.937,108.64C135.497,110.385 132.351,111.596 128.706,111.596C125.061,111.596 121.915,110.385 120.475,108.64L118.799,108.64C117.358,110.385 114.213,111.596 110.568,111.596C106.923,111.596 103.777,110.385 102.336,108.64L100.66,108.64C99.22,110.385 96.074,111.596 92.429,111.596C88.784,111.596 85.638,110.385 84.198,108.64L82.522,108.64C81.081,110.385 77.936,111.596 74.291,111.596C70.646,111.596 67.5,110.385 66.059,108.64L64.383,108.64C62.943,110.385 59.797,111.596 56.152,111.596C52.507,111.596 49.361,110.385 47.921,108.64L46.245,108.64C44.804,110.385 41.659,111.596 38.014,111.596C34.368,111.596 31.223,110.385 29.782,108.64L28.106,108.64C26.666,110.385 23.52,111.596 19.875,111.596C16.23,111.596 13.084,110.385 11.644,108.64L9.968,108.64C8.527,110.385 5.382,111.596 1.736,111.596C-1.724,111.596 -4.735,110.504 -6.264,108.9C-7.792,110.504 -10.803,111.596 -14.264,111.596C-19.269,111.596 -23.333,109.312 -23.333,106.499C-23.333,103.686 -19.269,101.402 -14.264,101.402C-10.803,101.402 -7.792,102.494 -6.264,104.097C-4.997,102.769 -2.714,101.792 0,101.496ZM1380.26,101.402C1385.27,101.402 1389.33,103.686 1389.33,106.499C1389.33,109.312 1385.27,111.596 1380.26,111.596C1375.26,111.596 1371.19,109.312 1371.19,106.499C1371.19,103.686 1375.26,101.402 1380.26,101.402Z" style="fill:rgb(78,34,0);"/>
    </g>
</svg>
