<?xml version="1.0" encoding="UTF-8" standalone="no"?>
<!DOCTYPE svg PUBLIC "-//W3C//DTD SVG 1.1//EN" "http://www.w3.org/Graphics/SVG/1.1/DTD/svg11.dtd">
<svg width="100%" height="100%" viewBox="0 0 79 23" version="1.1" xmlns="http://www.w3.org/2000/svg" xmlns:xlink="http://www.w3.org/1999/xlink" xml:space="preserve" xmlns:serif="http://www.serif.com/" style="fill-rule:evenodd;clip-rule:evenodd;stroke-linejoin:round;stroke-miterlimit:1.41421;">
    <g transform="matrix(0.75,0,0,0.75,0,0)">
        <g transform="matrix(1,0,0,1,-120.555,-1045.11)">
            <path d="M125.555,1075.11C124.228,1075.11 122.957,1074.58 122.019,1073.64C121.081,1072.7 120.555,1071.43 120.555,1070.11C120.555,1064.56 120.555,1055.66 120.555,1050.11C120.555,1048.78 121.081,1047.51 122.019,1046.57C122.957,1045.63 124.228,1045.11 125.555,1045.11L210.851,1045.11L210.851,1045.21L225.362,1060.11L210.851,1075L210.851,1075.11L210.751,1075.11L125.555,1075.11Z" style="fill:rgb(140,105,84);"/>
        </g>
    </g>
</svg>
