<?xml version="1.0" encoding="UTF-8" standalone="no"?>
<!DOCTYPE svg PUBLIC "-//W3C//DTD SVG 1.1//EN" "http://www.w3.org/Graphics/SVG/1.1/DTD/svg11.dtd">
<svg width="100%" height="100%" viewBox="0 0 18 19" version="1.1" xmlns="http://www.w3.org/2000/svg" xmlns:xlink="http://www.w3.org/1999/xlink" xml:space="preserve" xmlns:serif="http://www.serif.com/" style="fill-rule:evenodd;clip-rule:evenodd;stroke-linejoin:round;stroke-miterlimit:1.41421;">
    <g transform="matrix(0.0351567,0,0,0.0351567,-0.000123139,0)">
        <path d="M483.832,28.164C465.062,9.389 442.447,0 416.005,0L96.003,0C69.561,0 46.946,9.389 28.168,28.164C9.393,46.943 0.004,69.556 0.004,95.999L0.004,415.998C0.004,442.439 9.393,465.055 28.168,483.834C46.946,502.612 69.561,512.001 96.003,512.001L416.002,512.001C442.444,512.001 465.059,502.612 483.829,483.834C502.607,465.055 511.996,442.44 511.996,415.998L511.996,95.999C511.995,69.556 502.606,46.939 483.832,28.164ZM419.326,388.637C414.659,398.858 404.16,407.751 387.829,415.311C371.496,422.87 356.992,426.65 344.322,426.65C340.766,426.65 336.986,426.375 332.988,425.819C328.988,425.26 325.604,424.708 322.827,424.152C320.05,423.596 316.378,422.598 311.827,421.152C307.268,419.711 303.987,418.596 301.994,417.82C299.989,417.044 296.325,415.655 290.995,413.656C285.661,411.65 282.324,410.428 280.999,409.993C244.555,396.651 208.938,372.599 174.163,337.823C139.387,303.039 115.33,267.431 101.996,230.993C101.554,229.658 100.332,226.324 98.33,220.993C96.331,215.663 94.938,211.994 94.161,209.996C93.388,207.996 92.275,204.718 90.83,200.166C89.385,195.609 88.388,191.945 87.831,189.164C87.273,186.39 86.722,183.003 86.165,179.002C85.61,175.001 85.333,171.218 85.333,167.665C85.333,154.998 89.112,140.498 96.67,124.165C104.226,107.833 113.113,97.334 123.337,92.666C135.115,87.775 146.337,85.331 157.005,85.331C159.446,85.331 161.226,85.555 162.334,85.998C163.447,86.448 165.281,88.443 167.838,91.999C170.395,95.556 173.171,100.054 176.171,105.5C179.171,110.946 182.116,116.224 185.004,121.333C187.893,126.444 190.671,131.497 193.339,136.501C196.006,141.497 197.672,144.668 198.337,145.996C199.004,147.113 200.449,149.221 202.67,152.335C204.891,155.444 206.561,158.218 207.67,160.665C208.78,163.11 209.337,165.444 209.337,167.665C209.337,171.003 207.056,175.057 202.502,179.831C197.945,184.61 192.945,189.001 187.499,193.002C182.054,197.003 177.056,201.282 172.5,205.837C167.948,210.39 165.668,214.112 165.668,217.001C165.668,218.558 166.057,220.389 166.835,222.5C167.613,224.616 168.336,226.338 169.002,227.669C169.669,229.001 170.727,230.891 172.168,233.338C173.613,235.786 174.56,237.34 175.001,238.007C187.221,260.007 201.279,278.952 217.165,294.843C233.057,310.737 251.999,324.788 274.002,337.011C274.664,337.459 276.223,338.401 278.677,339.848C281.118,341.286 283.012,342.342 284.343,343.008C285.677,343.675 287.395,344.399 289.509,345.171C291.623,345.946 293.456,346.337 295.019,346.337C298.563,346.337 303.454,342.673 309.683,335.341C315.903,328.002 322.24,320.726 328.685,313.503C335.125,306.286 340.343,302.675 344.351,302.675C346.572,302.675 348.901,303.227 351.355,304.338C353.801,305.448 356.573,307.119 359.682,309.339C362.798,311.569 364.908,313.008 366.019,313.684L383.678,323.34C395.457,329.565 405.29,335.063 413.181,339.842C421.072,344.621 425.351,347.897 426.019,349.671C426.462,350.782 426.678,352.564 426.678,355.009C426.669,365.666 424.223,376.89 419.326,388.637Z" style="fill:rgb(191,175,128);fill-rule:nonzero;"/>
    </g>
</svg>
