<?xml version="1.0" encoding="UTF-8" standalone="no"?>
<!DOCTYPE svg PUBLIC "-//W3C//DTD SVG 1.1//EN" "http://www.w3.org/Graphics/SVG/1.1/DTD/svg11.dtd">
<svg width="100%" height="100%" viewBox="0 0 18 15" version="1.1" xmlns="http://www.w3.org/2000/svg" xmlns:xlink="http://www.w3.org/1999/xlink" xml:space="preserve" xmlns:serif="http://www.serif.com/" style="fill-rule:evenodd;clip-rule:evenodd;stroke-linejoin:round;stroke-miterlimit:1.41421;">
    <g transform="matrix(1,0,0,0.811293,-1054.34,-3929.65)">
        <g transform="matrix(0.0351562,0,0,0.0433335,1054.34,4841.31)">
            <path d="M49.142,178.86C55.619,183.43 75.142,197.004 107.713,219.574C140.284,242.145 165.237,259.524 182.57,271.711C184.475,273.047 188.521,275.952 194.71,280.428C200.901,284.907 206.045,288.527 210.137,291.288C214.233,294.048 219.185,297.144 224.997,300.572C230.808,303.996 236.285,306.572 241.427,308.277C246.571,309.996 251.333,310.848 255.713,310.848L256.288,310.848C260.668,310.848 265.432,309.995 270.576,308.277C275.716,306.572 281.198,303.993 287.004,300.572C292.812,297.14 297.764,294.047 301.859,291.288C305.955,288.527 311.095,284.907 317.288,280.428C323.476,275.948 327.527,273.047 329.432,271.711C346.952,259.524 391.528,228.57 463.144,178.854C477.048,169.144 488.665,157.427 497.997,143.712C507.336,130.003 512,115.621 512,100.575C512,88.002 507.474,77.239 498.425,68.288C489.377,59.334 478.662,54.86 466.285,54.86L45.712,54.86C31.047,54.86 19.76,59.812 11.856,69.715C3.952,79.62 0,92.001 0,106.857C0,118.857 5.24,131.86 15.714,145.86C26.188,159.86 37.334,170.861 49.142,178.86Z" style="fill:rgb(191,175,128);fill-rule:nonzero;"/>
        </g>
        <g transform="matrix(0.0351562,0,0,0.0433335,1054.34,4841.31)">
            <path d="M483.425,209.428C420.955,251.71 373.521,284.57 341.144,308.001C330.287,315.998 321.48,322.24 314.716,326.714C307.952,331.19 298.956,335.761 287.716,340.426C276.48,345.097 266.008,347.426 256.292,347.426L256.001,347.426L255.714,347.426C246,347.426 235.522,345.097 224.286,340.426C213.05,335.761 204.048,331.19 197.286,326.714C190.526,322.24 181.716,315.998 170.86,308.001C145.144,289.145 97.811,256.283 28.86,209.428C18,202.195 8.381,193.904 0,184.572L0,411.423C0,424.002 4.474,434.759 13.428,443.711C22.379,452.667 33.143,457.143 45.715,457.143L466.289,457.143C478.858,457.143 489.621,452.667 498.573,443.711C507.529,434.756 512.001,424.003 512.001,411.423L512.001,184.572C503.809,193.71 494.288,202.002 483.425,209.428Z" style="fill:rgb(191,175,128);fill-rule:nonzero;"/>
        </g>
    </g>
</svg>
