<?xml version="1.0" encoding="UTF-8" standalone="no"?>
<!DOCTYPE svg PUBLIC "-//W3C//DTD SVG 1.1//EN" "http://www.w3.org/Graphics/SVG/1.1/DTD/svg11.dtd">
<svg width="100%" height="100%" viewBox="0 0 414 155" version="1.1" xmlns="http://www.w3.org/2000/svg" xmlns:xlink="http://www.w3.org/1999/xlink" xml:space="preserve" xmlns:serif="http://www.serif.com/" style="fill-rule:evenodd;clip-rule:evenodd;stroke-linejoin:round;stroke-miterlimit:1.41421;">
    <g transform="matrix(1.0009,0,0,1.01053,-767.615,-475.514)">
        <clipPath id="_clip1">
            <rect x="766.556" y="470.561" width="413.655" height="146.734"/>
        </clipPath>
        <g clip-path="url(#_clip1)">
            <path d="M766.556,168.091L1180.21,168.091L1180.21,483.371C1180.21,512.418 1159.59,537.46 1130.86,543.296C1021.13,565.583 766.556,617.295 766.556,617.295L766.556,168.091Z" style="fill:rgb(89,50,60);"/>
        </g>
    </g>
    <g transform="matrix(1.0009,0,0,1,-855.483,-421.749)">
        <path d="M854.345,556.295L1218.49,482.328C1247.3,476.476 1268,451.146 1268,421.749L1268,441.749C1268,471.146 1247.3,496.476 1218.49,502.328C1108.68,524.633 854.345,576.295 854.345,576.295L854.345,556.295Z" style="fill:rgb(38,1,38);"/>
    </g>
</svg>
